<?xml version="1.0" standalone="no"?>
<!DOCTYPE svg PUBLIC "-//W3C//DTD SVG 20010904//EN"
 "http://www.w3.org/TR/2001/REC-SVG-20010904/DTD/svg10.dtd">
<svg version="1.0" xmlns="http://www.w3.org/2000/svg"
 width="400.000000pt" height="400.000000pt" viewBox="0 0 400.000000 400.000000"
 preserveAspectRatio="xMidYMid meet">
<metadata>
Created by potrace 1.14, written by Peter Selinger 2001-2017
</metadata>
<g transform="translate(0.000000,400.000000) scale(0.100000,-0.100000)"
fill="#000000" stroke="none">
<path d="M1645 3030 c-221 -77 -352 -243 -370 -471 -9 -122 -20 -179 -35 -179
-5 0 -21 11 -37 23 -38 33 -76 40 -116 24 -60 -26 -83 -99 -53 -172 14 -32 14
-38 1 -52 -8 -8 -19 -12 -24 -9 -5 3 -26 8 -46 12 -21 3 -45 7 -55 9 -10 2
-37 -1 -61 -7 -24 -5 -51 -11 -59 -13 -8 -2 -16 -4 -17 -5 -2 -2 -8 -3 -13 -4
-6 0 -14 -7 -19 -14 -5 -8 -11 -13 -15 -12 -15 4 -87 -70 -97 -100 -6 -16 -15
-30 -21 -30 -6 0 -8 -7 -4 -15 3 -8 2 -15 -2 -15 -11 0 -12 -39 -1 -45 5 -4 5
-13 -1 -25 -6 -11 -6 -21 -1 -24 8 -5 26 -92 23 -108 -1 -5 2 -8 8 -8 5 0 14
-9 20 -20 8 -15 6 -23 -11 -39 -12 -11 -25 -18 -29 -16 -5 3 -11 -2 -14 -11
-4 -9 -9 -14 -12 -11 -3 3 -13 -2 -23 -11 -10 -9 -31 -29 -47 -44 -42 -38 -52
-53 -60 -82 -3 -14 -10 -26 -16 -26 -5 0 -6 -5 -3 -10 3 -5 1 -10 -6 -10 -7 0
-10 -3 -6 -6 3 -4 0 -19 -8 -34 -18 -34 -26 -80 -15 -80 4 0 11 -17 15 -37 7
-39 34 -95 48 -101 4 -2 5 -7 2 -12 -3 -4 10 -15 28 -24 17 -8 28 -16 24 -16
-4 0 -2 -6 5 -14 7 -8 16 -12 20 -10 3 2 12 -2 20 -9 15 -15 118 -18 118 -4 0
5 23 -14 52 -42 28 -28 64 -56 80 -63 15 -7 28 -15 28 -18 0 -9 57 -14 149
-13 81 1 85 2 142 42 l58 41 20 -22 c11 -12 25 -36 32 -55 16 -51 80 -84 160
-84 87 1 125 7 189 32 102 41 199 141 253 262 17 37 17 37 59 30 63 -11 100
-9 137 10 42 21 40 21 34 -2 -3 -12 5 -25 21 -39 14 -11 48 -63 75 -116 27
-53 52 -92 56 -86 3 5 21 10 38 10 18 0 57 6 89 14 47 11 62 11 88 0 17 -8 52
-16 78 -20 26 -3 50 -8 53 -10 26 -15 213 70 230 105 l12 26 14 -33 c19 -46
40 -66 99 -96 41 -20 60 -25 94 -20 65 9 112 33 147 74 l32 37 72 -24 c71 -24
72 -24 138 -7 68 18 127 47 148 74 7 8 29 47 50 85 35 66 37 76 38 160 0 50
-3 103 -7 118 -11 45 -57 117 -99 156 -38 34 -39 37 -38 97 1 34 -1 67 -5 72
-4 6 -1 31 5 56 36 143 -152 335 -328 336 -49 0 -63 9 -63 41 0 44 -21 130
-41 170 -28 56 -131 145 -186 162 -62 18 -165 14 -198 -7 -24 -16 -25 -16 -25
7 0 13 -12 46 -26 72 -94 177 -286 261 -471 206 -39 -12 -72 -21 -74 -21 -3 0
-12 15 -22 33 -24 42 -95 98 -152 119 -62 22 -204 21 -270 -2z"/>
</g>
</svg>
